<?xml version="1.0" standalone="no"?>
<!DOCTYPE svg PUBLIC "-//W3C//DTD SVG 20010904//EN"
 "http://www.w3.org/TR/2001/REC-SVG-20010904/DTD/svg10.dtd">
<svg version="1.0" xmlns="http://www.w3.org/2000/svg"
 width="500.000000pt" height="500.000000pt" viewBox="0 0 500.000000 500.000000"
 preserveAspectRatio="xMidYMid meet">

<g transform="translate(0.000000,500.000000) scale(0.100000,-0.100000)"
fill="#000000" stroke="none">
<path d="M1972 3489 c-104 -9 -272 -61 -362 -111 -470 -262 -652 -840 -415
-1320 53 -106 103 -176 190 -263 88 -89 156 -137 273 -194 123 -61 210 -83
365 -96 l77 -6 0 31 c0 29 -2 30 -44 30 -119 0 -311 57 -442 131 -104 58 -264
215 -324 316 -155 265 -181 550 -74 833 91 244 311 457 560 544 90 31 210 56
274 56 49 0 50 1 50 30 0 22 -4 30 -17 29 -10 -1 -60 -5 -111 -10z"/>
<path d="M3054 3476 c-39 -17 -71 -57 -86 -109 -11 -36 -18 -43 -83 -72 -103
-48 -143 -102 -130 -175 14 -72 71 -120 143 -120 l39 0 7 -51 c6 -43 10 -50
24 -44 29 13 224 18 280 7 52 -9 52 -9 58 17 3 14 8 33 10 42 3 10 20 20 39
23 19 4 48 18 65 33 98 82 76 209 -59 344 -106 105 -218 144 -307 105z m173
-47 c92 -44 204 -177 218 -258 9 -55 -16 -106 -66 -131 -47 -24 -49 -24 -49
-2 0 9 16 27 35 40 46 30 45 45 -2 21 -49 -25 -64 -24 -161 15 -93 37 -93 37
-2 91 34 20 39 25 18 21 -54 -12 -78 -26 -137 -80 -33 -31 -72 -58 -86 -62
-31 -8 -74 3 -97 23 -27 25 -21 -2 7 -33 33 -35 32 -44 -5 -44 -104 0 -156
122 -82 193 29 28 112 63 112 47 0 -5 -8 -14 -17 -19 -11 -6 -13 -11 -5 -11
23 0 60 46 79 100 20 58 60 106 96 113 36 8 99 -2 144 -24z m-8 -360 c42 -12
77 -22 79 -24 1 -1 -2 -24 -8 -51 l-11 -49 -153 0 -154 0 -6 35 c-11 65 -9 70
28 70 19 0 38 4 41 10 7 11 59 28 89 29 11 1 54 -8 95 -20z"/>
<path d="M1850 2972 c-137 -42 -218 -135 -162 -185 23 -21 36 -22 28 -1 -11
28 11 50 81 82 120 55 240 64 279 21 16 -18 16 -22 1 -53 -23 -49 -116 -114
-189 -132 -37 -8 -36 7 3 61 24 33 30 50 25 69 -7 30 -32 34 -53 9 -15 -19
-108 -154 -155 -226 -49 -74 -81 -144 -75 -161 10 -24 36 -31 54 -13 14 14 19
13 45 -6 42 -31 126 -30 192 3 100 51 134 135 81 198 l-25 30 54 31 c127 71
148 182 50 257 -32 25 -47 29 -108 31 -44 1 -92 -5 -126 -15z m106 -353 c24
-19 16 -46 -23 -78 -21 -17 -42 -31 -48 -31 -6 0 -22 -8 -35 -17 -39 -28 -128
-9 -116 24 3 8 23 40 43 70 l37 56 64 -6 c35 -4 71 -12 78 -18z"/>
<path d="M2370 2962 c-48 -17 -193 -217 -270 -372 -49 -97 -53 -112 -37 -134
12 -17 18 -13 74 48 33 36 73 76 88 88 l27 21 -21 -41 c-30 -60 -27 -103 10
-123 21 -11 49 0 86 34 13 11 24 19 25 16 2 -2 8 -13 14 -24 19 -35 57 -30 93
11 18 20 33 35 35 33 1 -2 10 -16 19 -31 21 -33 39 -35 78 -8 l28 21 16 -31
c23 -45 55 -40 118 19 45 42 56 48 84 44 29 -5 31 -7 26 -37 -3 -21 0 -36 10
-45 13 -10 21 -6 49 25 87 99 111 124 119 124 10 0 -8 -62 -21 -70 -7 -4 -7
-17 1 -38 16 -45 50 -52 97 -18 l37 26 13 -25 c18 -35 52 -32 92 10 38 40 50
43 50 16 0 -26 26 -44 53 -37 13 3 49 32 80 65 43 45 57 67 57 89 0 29 -1 29
-64 -36 -63 -65 -97 -78 -64 -24 9 15 27 45 39 67 l22 39 -38 33 c-21 18 -43
33 -50 33 -27 0 -106 -63 -149 -118 -42 -55 -93 -102 -111 -102 -11 0 2 29 47
103 39 65 40 68 23 87 -16 18 -19 18 -47 4 -17 -9 -50 -36 -74 -61 -49 -50
-54 -49 -22 6 35 61 -2 103 -39 44 -37 -61 -85 -113 -104 -113 -24 0 -24 2 1
42 21 35 26 83 10 93 -15 9 -67 -50 -75 -84 -3 -16 -26 -49 -50 -75 -78 -80
-83 -53 -14 65 44 73 46 84 22 93 -18 7 -83 -48 -83 -70 0 -15 -98 -124 -111
-124 -17 0 -9 22 28 81 l36 59 -22 24 c-60 63 -109 52 -193 -46 -61 -72 -118
-128 -130 -128 -18 0 -6 36 31 90 49 72 56 102 25 114 -23 9 -52 -9 -116 -72
-32 -31 -58 -52 -58 -46 0 16 97 153 140 199 53 56 90 114 90 141 0 26 -9 34
-30 26z m190 -300 c0 -14 -128 -147 -135 -140 -11 10 23 66 66 109 36 36 69
51 69 31z m810 3 c0 -13 -139 -149 -146 -142 -10 10 53 99 89 125 30 21 57 29
57 17z"/>
<path d="M2490 2305 c-11 -13 -68 -15 -394 -17 l-381 -3 379 -2 c324 -3 382
-5 397 -19 15 -13 17 -13 22 1 6 13 54 15 379 17 l373 3 -370 2 c-316 3 -372
5 -381 18 -10 14 -13 14 -24 0z"/>
<path d="M2168 2209 c-26 -15 -22 -35 12 -59 17 -12 30 -28 30 -36 0 -23 -29
-28 -50 -9 -11 10 -20 13 -20 8 0 -35 64 -42 84 -10 9 16 5 24 -29 52 -33 28
-37 35 -22 41 9 3 24 4 32 0 8 -3 15 -1 15 3 0 5 -7 12 -16 15 -19 7 -15 8
-36 -5z"/>
<path d="M1922 2143 c0 -37 3 -53 5 -35 5 40 23 41 46 1 10 -18 20 -29 24 -26
3 4 -1 17 -10 30 -14 22 -14 26 1 41 23 23 5 50 -37 54 l-31 3 2 -68z m58 38
c0 -20 -25 -35 -41 -25 -5 3 -9 14 -9 25 0 14 7 19 25 19 18 0 25 -5 25 -19z"/>
<path d="M2030 2145 l0 -65 48 2 c43 1 44 2 10 5 -32 4 -38 8 -38 28 0 19 6
24 33 28 l32 4 -32 1 c-28 2 -33 6 -33 26 0 21 5 25 38 29 34 3 33 4 -10 5
l-48 2 0 -65z"/>
<path d="M2262 2203 c26 -4 27 -8 31 -66 l3 -62 2 62 c2 59 3 62 30 66 15 2 0
4 -33 4 -33 0 -48 -2 -33 -4z"/>
<path d="M2403 2193 c-3 -10 -14 -39 -24 -65 -10 -27 -15 -48 -10 -48 5 0 11
7 15 15 8 21 62 20 70 -1 4 -9 9 -15 11 -12 8 7 -37 128 -47 128 -5 0 -11 -8
-15 -17z m32 -50 c5 -19 2 -23 -14 -23 -21 0 -26 15 -15 45 8 19 19 10 29 -22z"/>
<path d="M2501 2160 c-1 -60 10 -80 44 -80 34 0 45 20 44 80 l-2 55 -6 -50
c-7 -57 -16 -75 -36 -75 -20 0 -29 18 -36 75 l-6 50 -2 -55z"/>
<path d="M2630 2145 c0 -37 4 -65 10 -65 6 0 10 14 10 30 0 17 4 30 10 30 5 0
16 -13 25 -30 9 -16 20 -30 25 -30 6 0 3 11 -6 25 -14 22 -15 30 -4 50 19 35
7 55 -35 55 l-35 0 0 -65z m63 41 c6 -16 -11 -36 -30 -36 -7 0 -13 11 -13 25
0 18 5 25 19 25 10 0 21 -6 24 -14z"/>
<path d="M2773 2193 c-3 -10 -14 -39 -24 -65 -10 -27 -15 -48 -10 -48 5 0 11
7 15 15 8 21 62 20 70 -1 4 -9 9 -15 11 -12 8 7 -37 128 -47 128 -5 0 -11 -8
-15 -17z m32 -50 c5 -19 2 -23 -14 -23 -21 0 -26 15 -15 45 8 19 19 10 29 -22z"/>
<path d="M2870 2145 c0 -37 4 -65 10 -65 6 0 10 24 11 53 l0 52 27 -52 c36
-73 52 -69 52 12 0 37 -4 65 -10 65 -5 0 -10 -24 -11 -52 l0 -53 -27 53 c-36
72 -52 68 -52 -13z"/>
<path d="M3012 2203 c26 -4 27 -8 31 -66 l3 -62 2 62 c2 59 3 62 30 66 15 2 0
4 -33 4 -33 0 -48 -2 -33 -4z"/>
</g>
</svg>
